<svg xmlns="http://www.w3.org/2000/svg" viewBox="0 0 351.27 223.97"><defs><style>.cls-1{fill:none;stroke:#f36f21;stroke-miterlimit:10;stroke-width:4px;}.cls-2{font-size:36px;}.cls-13,.cls-2,.cls-4,.cls-5{fill:#f36f21;}.cls-2,.cls-4{font-family:Gotham-Bold, Gotham;font-weight:700;}.cls-3{letter-spacing:0em;}.cls-4{font-size:48px;}.cls-5{font-size:24px;font-family:Gotham-Book, Gotham;}.cls-6{letter-spacing:-0.01em;}.cls-7{letter-spacing:-0.01em;}.cls-8{letter-spacing:-0.02em;}.cls-9{letter-spacing:-0.02em;}.cls-10{letter-spacing:-0.02em;}.cls-11{letter-spacing:0em;}.cls-12{letter-spacing:-0.02em;}</style></defs><title>desktop-center</title><g id="Layer_2" data-name="Layer 2"><g id="Layer_1-2" data-name="Layer 1"><path class="cls-1" d="M299.25,222H14.95A12.94,12.94,0,0,1,2.86,204.42L36.41,116.6a12.93,12.93,0,0,0,0-9.23L2.86,19.55A12.94,12.94,0,0,1,14.95,2H299.25a12.94,12.94,0,0,1,12.08,8.32l37.08,97.05a12.93,12.93,0,0,1,0,9.23l-37.08,97.05A12.94,12.94,0,0,1,299.25,222Z"/><text class="cls-2" transform="translate(61.88 62.48)"><tspan class="cls-3">P</tspan><tspan x="23.87" y="0">ending</tspan></text><text class="cls-4" transform="translate(61.88 179.48)">3</text><text class="cls-5" transform="translate(61.88 122.02)"><tspan class="cls-6">A</tspan><tspan x="18.72" y="0">ug 12, 2</tspan><tspan class="cls-7" x="107.06" y="0">0</tspan><tspan x="124.1" y="0">18</tspan></text><text class="cls-5" transform="translate(94.88 180.52)"><tspan class="cls-8">r</tspan><tspan x="9.19" y="0">e</tspan><tspan class="cls-9" x="23.4" y="0">c</tspan><tspan x="36.74" y="0">o</tspan><tspan class="cls-10" x="52.25" y="0">r</tspan><tspan class="cls-11" x="61.46" y="0">d</tspan><tspan class="cls-9" x="77.4" y="0">(</tspan><tspan class="cls-12" x="87.46" y="0">s</tspan><tspan x="98.93" y="0">)</tspan></text><rect class="cls-13" x="65.2" y="82.29" width="77.8" height="7.12"/></g></g></svg>