<svg xmlns="http://www.w3.org/2000/svg" viewBox="0 0 311.33 223.97"><defs><style>.cls-1{fill:none;stroke:#9f3c71;stroke-miterlimit:10;stroke-width:4px;}.cls-2{font-size:36px;}.cls-12,.cls-2,.cls-3,.cls-4{fill:#9f3c71;}.cls-2,.cls-3{font-family:Gotham-Bold, Gotham;font-weight:700;}.cls-3{font-size:48px;}.cls-4{font-size:24px;font-family:Gotham-Book, Gotham;}.cls-5{letter-spacing:-0.01em;}.cls-6{letter-spacing:-0.01em;}.cls-7{letter-spacing:-0.02em;}.cls-8{letter-spacing:-0.02em;}.cls-9{letter-spacing:-0.02em;}.cls-10{letter-spacing:0em;}.cls-11{letter-spacing:-0.02em;}</style></defs><title>last</title><g id="Layer_2" data-name="Layer 2"><g id="Layer_1-2" data-name="Layer 1"><path class="cls-1" d="M305.22,222H14.95A12.94,12.94,0,0,1,2.86,204.42L36.41,116.6a12.94,12.94,0,0,0,0-9.23L2.86,19.55A12.94,12.94,0,0,1,14.95,2H305.22c1.28,0,2.46,1.23,3.3,3.29a12,12,0,0,1,.81,4.52V214.17a12,12,0,0,1-.81,4.52C307.68,220.74,306.49,222,305.22,222Z"/><text class="cls-2" transform="translate(62.88 63.52)">Disbursed</text><text class="cls-3" transform="translate(62.88 180.52)">12</text><text class="cls-4" transform="translate(62.88 123.06)"><tspan class="cls-5">A</tspan><tspan x="18.72" y="0">ug 12, 2</tspan><tspan class="cls-6" x="107.06" y="0">0</tspan><tspan x="124.1" y="0">18</tspan></text><text class="cls-4" transform="translate(120.88 180.52)"><tspan class="cls-7">r</tspan><tspan x="9.19" y="0">e</tspan><tspan class="cls-8" x="23.4" y="0">c</tspan><tspan x="36.74" y="0">o</tspan><tspan class="cls-9" x="52.25" y="0">r</tspan><tspan class="cls-10" x="61.46" y="0">d</tspan><tspan class="cls-8" x="77.4" y="0">(</tspan><tspan class="cls-11" x="87.46" y="0">s</tspan><tspan x="98.93" y="0">)</tspan></text><rect class="cls-12" x="66.2" y="83.33" width="77.8" height="7.12"/></g></g></svg>