<svg xmlns="http://www.w3.org/2000/svg" viewBox="0 0 315.09 96.71"><defs><style>.cls-1{fill:#9f3c71;}.cls-2,.cls-3{font-size:24px;fill:#fff;}.cls-2{font-family:Gotham-Bold, Gotham;font-weight:700;}.cls-3{font-family:Gotham-Thin, Gotham;}.cls-4{letter-spacing:-0.03em;}.cls-5{letter-spacing:-0.02em;}.cls-6{letter-spacing:-0.02em;}</style></defs><title>mob-last</title><g id="Layer_2" data-name="Layer 2"><g id="Layer_1-2" data-name="Layer 1"><g id="grup1"><path class="cls-1" d="M306.71,96.71H4.49A4.48,4.48,0,0,1,.38,90.44l17.51-40.3a4.48,4.48,0,0,0,0-3.57L.38,6.27A4.48,4.48,0,0,1,4.49,0H306.71a4.48,4.48,0,0,1,4.11,2.7V94A4.48,4.48,0,0,1,306.71,96.71Z"/><text class="cls-2" transform="translate(35.24 55.47)">Abort</text><text class="cls-3" transform="translate(160.29 55.14)">2 <tspan class="cls-4" x="20.33" y="0">r</tspan><tspan x="27.77" y="0">e</tspan><tspan class="cls-5" x="41.76" y="0">c</tspan><tspan x="54.86" y="0">o</tspan><tspan class="cls-4" x="70.08" y="0">r</tspan><tspan x="77.52" y="0">ds</tspan><tspan class="cls-5" x="105" y="0">(</tspan><tspan class="cls-6" x="114" y="0">s</tspan><tspan x="125.28" y="0" xml:space="preserve">)   </tspan></text></g></g></g></svg>