<svg xmlns="http://www.w3.org/2000/svg" viewBox="0 0 357.11 223.97"><defs><style>.cls-1{fill:none;stroke:#ef434e;stroke-miterlimit:10;stroke-width:4px;}.cls-2{font-size:36px;}.cls-14,.cls-2,.cls-6,.cls-7{fill:#ef434e;}.cls-2,.cls-6{font-family:Gotham-Bold, Gotham;font-weight:700;}.cls-3{letter-spacing:-0.01em;}.cls-4{letter-spacing:0em;}.cls-5{letter-spacing:-0.02em;}.cls-6{font-size:48px;}.cls-7{font-size:24px;font-family:Gotham-Book, Gotham;}.cls-8{letter-spacing:-0.01em;}.cls-9{letter-spacing:-0.01em;}.cls-10{letter-spacing:-0.02em;}.cls-11{letter-spacing:-0.02em;}.cls-12{letter-spacing:0em;}.cls-13{letter-spacing:-0.02em;}</style></defs><title>desktop-first</title><g id="Layer_2" data-name="Layer 2"><g id="Layer_1-2" data-name="Layer 1"><path class="cls-1" d="M305.09,2H14.94A12.94,12.94,0,0,0,2,14.94V209A12.94,12.94,0,0,0,14.94,222H305.09a12.94,12.94,0,0,0,12.08-8.32l37.08-97.05a12.94,12.94,0,0,0,0-9.23L317.18,10.32A12.94,12.94,0,0,0,305.09,2Z"/><text class="cls-2" transform="translate(38.7 62.48)"><tspan class="cls-3">R</tspan><tspan class="cls-4" x="25.67" y="0">ejec</tspan><tspan class="cls-5" x="101.23" y="0">t</tspan><tspan x="115.63" y="0">ed</tspan></text><text class="cls-6" transform="translate(38.7 179.48)">12</text><text class="cls-7" transform="translate(38.7 122.02)"><tspan class="cls-8">A</tspan><tspan x="18.72" y="0">ug 12, 2</tspan><tspan class="cls-9" x="107.06" y="0">0</tspan><tspan x="124.1" y="0">18</tspan></text><text class="cls-7" transform="translate(96.7 179.48)"><tspan class="cls-10">r</tspan><tspan x="9.19" y="0">e</tspan><tspan class="cls-5" x="23.4" y="0">c</tspan><tspan x="36.74" y="0">o</tspan><tspan class="cls-11" x="52.25" y="0">r</tspan><tspan class="cls-12" x="61.46" y="0">d</tspan><tspan class="cls-5" x="77.4" y="0">(</tspan><tspan class="cls-13" x="87.46" y="0">s</tspan><tspan x="98.93" y="0">)</tspan></text><rect class="cls-14" x="42.02" y="82.28" width="77.8" height="7.12"/></g></g></svg>